<svg width="1200" height="630" viewBox="0 0 1200 630" fill="none" xmlns="http://www.w3.org/2000/svg">
  <defs>
    <radialGradient id="og-bg" cx="50%" cy="50%" r="70%">
      <stop offset="0%" stop-color="#111827" />
      <stop offset="100%" stop-color="#020617" />
    </radialGradient>
  </defs>
  
  <!-- Background -->
  <rect width="1200" height="630" fill="url(#og-bg)" />
  
  <!-- Main Content Container (centered) -->
  <g transform="translate(600, 315)">
    <!-- Full Wordmark Logo - embedded directly and scaled to fit -->
    <g transform="translate(-490, -290) scale(0.64)">
      <path d="M0 0 C1.71123802 -0.01073296 1.71123802 -0.01073296 3.45704651 -0.02168274 C4.69969772 -0.02437164 5.94234894 -0.02706055 7.22265625 -0.02983093 C8.53874374 -0.03640213 9.85483124 -0.04297333 11.21080017 -0.04974365 C15.5689066 -0.07072428 19.92701311 -0.08114389 24.28515625 -0.09111023 C25.79086322 -0.09516073 27.29657001 -0.09927774 28.80227661 -0.10346031 C35.88173999 -0.12250281 42.96119303 -0.13673297 50.04067707 -0.14507228 C58.18459294 -0.15482622 66.32823569 -0.18110118 74.47205544 -0.22157317 C80.7839867 -0.251853 87.09584022 -0.26655253 93.40784264 -0.26985329 C97.16923544 -0.27219125 100.93033619 -0.28098558 104.69165039 -0.30631447 C108.23764941 -0.32980773 111.7831685 -0.3337446 115.32922554 -0.32355309 C117.22920508 -0.32283132 119.12916143 -0.34177428 121.02903748 -0.36161804 C134.21034307 -0.28294361 145.69500773 3.09425625 155.4375 12.14717102 C168.04692515 25.29666466 167.28515625 37.9047958 167.28515625 56.14717102 C149.13515625 56.14717102 130.98515625 56.14717102 112.28515625 56.14717102 C112.28515625 51.85717102 112.28515625 47.56717102 112.28515625 43.14717102 C72.02515625 43.47717102 31.76515625 43.80717102 -9.71484375 44.14717102 C-1.79484375 48.10717102 6.12515625 52.06717102 14.28515625 56.14717102 C14.28515625 61.09717102 14.28515625 66.04717102 14.28515625 71.14717102 C15.77440613 71.13606796 17.26365601 71.1249649 18.79803467 71.11352539 C32.86287295 71.01197396 46.92762334 70.93682017 60.992733 70.88811016 C68.22300764 70.8624013 75.45300737 70.82739248 82.68310547 70.76997375 C88.98977457 70.71991272 95.29624444 70.68782689 101.60310674 70.67672855 C104.93833997 70.67024749 108.27255509 70.65249267 111.6076889 70.61852074 C115.34393988 70.58199168 119.07902763 70.57723593 122.81542969 70.57954407 C124.44787376 70.5525795 124.44787376 70.5525795 126.11329651 70.52507019 C137.66175007 70.60179122 148.05876551 74.96974689 156.28515625 83.14717102 C158.5636714 86.01030518 160.46274698 88.97853039 162.28515625 92.14717102 C162.86265625 93.05467102 163.44015625 93.96217102 164.03515625 94.89717102 C167.81198419 104.71692366 167.63180175 115.65958125 167.60083008 126.05000305 C167.59764951 128.27689246 167.62130841 130.50247372 167.64648438 132.72920227 C167.70982692 146.98859786 165.1423422 160.24179624 155.09765625 170.95967102 C144.52232077 180.90259441 132.78383225 182.44614762 118.82348633 182.4535675 C117.47395373 182.46120117 116.12442544 182.46963072 114.77490234 182.47879028 C111.12791671 182.50062554 107.48101486 182.50951951 103.83397126 182.51461673 C101.54898431 182.5182739 99.26401885 182.52452099 96.97904015 182.53161812 C88.98886538 182.55607629 80.99875519 182.56915625 73.00854492 182.57270813 C65.59102596 182.5763387 58.17392193 182.60620877 50.75652963 182.64811271 C44.36384717 182.68294593 37.97130136 182.69825882 31.57852477 182.69895416 C27.77129513 182.69974268 23.9644887 182.70828263 20.15735817 182.73695183 C16.57100418 182.76335708 12.98541753 182.76521505 9.3990097 182.74929619 C7.47758096 182.74665157 5.55616562 182.76851221 3.63487244 182.79148865 C-9.40525255 182.68321276 -20.44841126 178.44723848 -29.71484375 169.14717102 C-40.57360914 156.36525496 -40.71484375 142.52287348 -40.71484375 126.14717102 C-22.56484375 126.14717102 -4.41484375 126.14717102 14.28515625 126.14717102 C14.28515625 130.76717102 14.28515625 135.38717102 14.28515625 140.14717102 C46.62515625 140.14717102 78.96515625 140.14717102 112.28515625 140.14717102 C112.28515625 130.90717102 112.28515625 121.66717102 112.28515625 112.14717102 C108.89983643 112.16288147 105.5145166 112.17859192 102.02661133 112.19477844 C90.80692164 112.24462029 79.58722312 112.27783148 68.36745167 112.30260754 C61.56888463 112.31802216 54.7704231 112.33900707 47.97192383 112.37348938 C41.40372304 112.40678749 34.8355904 112.42405451 28.26730919 112.43180275 C25.76884938 112.43732038 23.27039514 112.44809459 20.77198219 112.46436119 C-14.7071778 112.68604668 -14.7071778 112.68604668 -28.40234375 100.08467102 C-37.10988396 90.96611055 -41.02975911 79.56011961 -41.015625 67.13545227 C-41.01991013 66.28597519 -41.02419525 65.43649811 -41.02861023 64.5612793 C-41.03432795 62.77033881 -41.03487275 60.97937511 -41.03051758 59.18843079 C-41.02737299 56.48480822 -41.05079512 53.78229809 -41.07617188 51.07881165 C-41.12988791 36.85070553 -40.05800585 24.58025096 -30.71484375 13.14717102 C-22.16569658 4.61236806 -12.08730773 0.05224042 0 0 Z " fill="#FCFCFC" transform="translate(1169.71484375,298.8528289794922)"/>
      <path d="M0 0 C18.48 0 36.96 0 56 0 C61.81766356 6.39942991 67.38228434 12.62216249 72.78515625 19.31640625 C74.95632827 21.94708557 77.20241357 24.47942424 79.5 27 C83.41891252 31.29991791 87.09170869 35.75919547 90.75 40.28125 C92.93501569 42.92147729 95.19171391 45.4672972 97.5 48 C111 62.85714286 111 62.85714286 111 66 C111.66 66 112.32 66 113 66 C114.35382149 67.48738235 115.63139886 69.04430551 116.875 70.625 C120.44768544 75.08942773 124.08048462 79.48044699 127.8125 83.8125 C128.31467041 84.39684814 128.81684082 84.98119629 129.33422852 85.58325195 C131.41767348 88.00606967 133.50408521 90.42629465 135.59375 92.84375 C136.65471756 94.07114384 137.71486041 95.29925106 138.77416992 96.52807617 C139.75680248 97.66790499 140.74116936 98.8062425 141.7277832 99.94262695 C145.66779942 104.51582286 149.27779518 109.21430809 153 114 C153.33 76.38 153.66 38.76 154 0 C172.48 0 190.96 0 210 0 C210 60.39 210 120.78 210 183 C191.52 183 173.04 183 154 183 C146.31351332 174.45945925 138.76043972 165.96088156 131.51953125 157.0546875 C128.21966826 153.05392338 124.8358654 149.12893333 121.44921875 145.20166016 C118.34645684 141.59529308 115.30574274 137.948457 112.3125 134.25 C109.46541499 130.7411601 106.54187448 127.34133363 103.5 124 C99.65441259 119.77583145 96.03269029 115.41046927 92.4375 110.97265625 C89.73108928 107.67204959 86.96958695 104.42430809 84.1875 101.1875 C83.68331543 100.600896 83.17913086 100.01429199 82.65966797 99.40991211 C81.10738578 97.6057956 79.55392161 95.80270456 78 94 C75.93595012 91.6054956 73.87325237 89.20984302 71.8125 86.8125 C71.3172583 86.23693359 70.8220166 85.66136719 70.31176758 85.06835938 C66.3590111 80.45801213 62.5276083 75.76082726 58.7421875 71.01171875 C57.15274106 68.91663864 57.15274106 68.91663864 55 68 C55 105.95 55 143.9 55 183 C36.85 183 18.7 183 0 183 C0 122.61 0 62.22 0 0 Z " fill="#FDFDFD" transform="translate(316,298)"/>
      <path d="M0 0 C1.40032442 0.00056512 2.80064943 0.00024558 4.20097351 -0.00088501 C7.97723243 -0.00145558 11.75336262 0.01025043 15.5295918 0.02426291 C19.48537358 0.03681995 23.44115876 0.03794467 27.3969574 0.04031372 C34.87653822 0.04651394 42.35606014 0.06290489 49.8356151 0.0830127 C58.35560504 0.10541725 66.87559788 0.11637656 75.39560997 0.12640357 C92.91148518 0.14727251 110.4272797 0.18393039 127.94311523 0.22705078 C127.94311523 14.41705078 127.94311523 28.60705078 127.94311523 43.22705078 C78.77311523 43.55705078 29.60311523 43.88705078 -21.05688477 44.22705078 C-9.67188477 50.16705078 -9.67188477 50.16705078 1.94311523 56.22705078 C5.48649717 59.77043272 2.94311523 66.21595199 2.94311523 71.22705078 C35.61311523 71.22705078 68.28311523 71.22705078 101.94311523 71.22705078 C101.94311523 85.08705078 101.94311523 98.94705078 101.94311523 113.22705078 C61.68311523 113.55705078 21.42311523 113.88705078 -20.05688477 114.22705078 C-8.60288587 120.31643965 -8.60288587 120.31643965 2.94311523 126.22705078 C2.94311523 131.17705078 2.94311523 136.12705078 2.94311523 141.22705078 C44.19311523 141.22705078 85.44311523 141.22705078 127.94311523 141.22705078 C127.94311523 155.08705078 127.94311523 168.94705078 127.94311523 183.22705078 C110.00974111 183.27227646 92.076416 183.30908576 74.1430006 183.33067513 C65.81536498 183.34096789 57.48776743 183.35498981 49.16015625 183.37792969 C41.89799371 183.39792499 34.63585875 183.41078174 27.37366945 183.41522777 C23.53187125 183.41782479 19.69015194 183.42388682 15.84837914 183.43851089 C12.22459047 183.45219206 8.60091241 183.45625238 4.97710037 183.45326614 C3.02900524 183.45406966 1.08092186 183.46477573 -0.86714172 183.47589111 C-15.11873574 183.44281718 -27.45473466 181.32233084 -38.17407227 171.29736328 C-49.33632576 159.02351608 -51.21080633 144.63932441 -51.20214844 128.70678711 C-51.20550705 127.80137177 -51.20886566 126.89595642 -51.21232605 125.96310425 C-51.22175827 122.99508255 -51.22377537 120.02711775 -51.22485352 117.05908203 C-51.22807189 114.97556028 -51.23143639 112.89203875 -51.23493958 110.80851746 C-51.24091186 106.4485929 -51.24278148 102.08868812 -51.2421875 97.72875977 C-51.24208609 92.17577568 -51.25572544 86.62292004 -51.27295971 81.06996632 C-51.28414683 76.76736381 -51.28610464 72.46479168 -51.28557777 68.16217613 C-51.28674829 66.11671189 -51.29111711 64.07124662 -51.29891014 62.02579689 C-51.42415686 25.75243319 -51.42415686 25.75243319 -38.30688477 11.78955078 C-27.05050493 1.27572074 -14.8442269 -0.08239484 0 0 Z " fill="#FCFCFC" transform="translate(610.056884765625,297.77294921875)"/>
      <path d="M0 0 C1.23731873 0.00707474 2.47463745 0.01414948 3.74945068 0.0214386 C7.03135226 0.04467951 10.31201931 0.0895617 13.59350586 0.1449585 C16.94503401 0.19620355 20.29661522 0.218537 23.6484375 0.24414062 C30.21923263 0.2992839 36.78920286 0.3829686 43.359375 0.48828125 C37.06718358 8.93437858 37.06718358 8.93437858 34.09765625 12.53125 C33.54166748 13.20591309 32.98567871 13.88057617 32.4128418 14.57568359 C31.83832275 15.26871582 31.26380371 15.96174805 30.671875 16.67578125 C30.0631958 17.4126416 29.4545166 18.14950195 28.82739258 18.90869141 C24.65270229 23.9532681 20.43764021 28.96222723 16.19702148 33.95141602 C11.11582612 39.93610232 6.1652747 46.02579076 1.22265625 52.125 C-3.51711879 57.95398726 -8.36314467 63.67748736 -13.26879883 69.36645508 C-16.78516008 73.45664166 -20.17314724 77.62947609 -23.515625 81.86328125 C-26.15922215 85.12890126 -28.89536302 88.30805899 -31.640625 91.48828125 C-35.7356508 96.2329285 -39.71796061 101.03977249 -43.60546875 105.95703125 C-45.94291871 108.86426267 -48.34777423 111.71055311 -50.765625 114.55078125 C-55.22010019 119.79054867 -59.63290894 125.06331956 -64.015625 130.36328125 C-64.59844238 131.06461182 -65.18125977 131.76594238 -65.78173828 132.48852539 C-69.25942439 136.7041302 -72.51512155 141.00488117 -75.640625 145.48828125 C-68.45808499 154.26943298 -61.2414424 163.01207569 -53.82885742 171.6003418 C-50.89947496 175.00042176 -48.02832063 178.43794883 -45.203125 181.92578125 C-41.10147229 186.97682193 -36.85471489 191.88956521 -32.58276367 196.79614258 C-27.66734146 202.44454751 -22.82452905 208.15106379 -18.00097656 213.87792969 C-16.59144251 215.54650231 -15.17544779 217.2094002 -13.7578125 218.87109375 C1.359375 236.60879828 1.359375 236.60879828 1.359375 238.48828125 C-6.45022958 238.7681621 -14.25853401 238.96021148 -22.07202148 239.0925293 C-24.72904486 239.14150109 -27.37948649 239.22258242 -30.03588867 239.31811523 C-33.86199871 239.45222631 -37.68368013 239.5140696 -41.51171875 239.5625 C-42.69019882 239.61927414 -43.86867889 239.67604828 -45.08287048 239.73454285 C-50.24741073 239.73837237 -53.37229466 239.60926455 -57.33633423 236.10574341 C-59.62162484 233.32340534 -61.64282258 230.48098347 -63.640625 227.48828125 C-64.75396622 226.14673332 -65.88450681 224.81883094 -67.046875 223.51953125 C-67.55798828 222.93494141 -68.06910156 222.35035156 -68.59570312 221.74804688 C-69.36043945 220.87696289 -69.36043945 220.87696289 -70.140625 219.98828125 C-73.87609538 215.70742353 -77.56527231 211.40489339 -81.140625 206.98828125 C-85.32477835 201.82007702 -89.66549467 196.79852847 -94.03710938 191.7890625 C-95.57551384 190.02547952 -97.10857579 188.25738538 -98.640625 186.48828125 C-99.13626953 185.92318848 -99.63191406 185.3580957 -100.14257812 184.77587891 C-103.640625 180.71573378 -103.640625 180.71573378 -103.640625 178.48828125 C-104.300625 178.48828125 -104.960625 178.48828125 -105.640625 178.48828125 C-105.85589844 179.01292969 -106.07117188 179.53757812 -106.29296875 180.078125 C-108.16923911 183.4336578 -110.67558149 186.17908823 -113.203125 189.05078125 C-114.29786139 190.31034128 -115.39160298 191.57076659 -116.484375 192.83203125 C-117.02320313 193.45335937 -117.56203125 194.0746875 -118.1171875 194.71484375 C-120.1884647 197.12602284 -122.19983509 199.58296034 -124.203125 202.05078125 C-127.46840726 206.07186121 -130.78617012 210.04176161 -134.140625 213.98828125 C-138.31174172 218.89594694 -142.41744344 223.85116358 -146.47265625 228.85546875 C-147.54580078 230.15871094 -147.54580078 230.15871094 -148.640625 231.48828125 C-148.99723709 232.07050949 -149.35384918 232.65273773 -149.7212677 233.25260925 C-151.8793045 236.41821704 -153.49038853 238.22244812 -157.30348206 239.10369873 C-160.64236801 239.29884234 -163.91474011 239.27492326 -167.2578125 239.171875 C-168.47010529 239.16197037 -169.68239807 239.15206573 -170.931427 239.14186096 C-174.79406958 239.10275304 -178.65384494 239.01492513 -182.515625 238.92578125 C-185.13797973 238.89066332 -187.7603791 238.85872518 -190.3828125 238.83007812 C-196.80305752 238.75300202 -203.22163642 238.63594372 -209.640625 238.48828125 C-208.30024122 235.73709325 -206.92977879 233.424858 -204.98828125 231.0546875 C-204.20300049 230.09151611 -204.20300049 230.09151611 -203.40185547 229.10888672 C-202.84127441 228.42971191 -202.28069336 227.75053711 -201.703125 227.05078125 C-201.12191895 226.34066895 -200.54071289 225.63055664 -199.94189453 224.89892578 C-195.90610302 219.98219752 -191.80394047 215.12483595 -187.6706543 210.29003906 C-184.34270514 206.37565915 -181.1637984 202.36057095 -178.015625 198.30078125 C-174.12009904 193.27939265 -170.04447926 188.51438412 -165.7421875 183.83203125 C-162.9758012 180.74684207 -160.43446788 177.50800994 -157.87109375 174.25390625 C-155.19622647 170.93725821 -152.42480758 167.71316635 -149.640625 164.48828125 C-147.6378423 162.15732339 -145.63837931 159.82354945 -143.640625 157.48828125 C-142.37992188 156.01488281 -142.37992188 156.01488281 -141.09375 154.51171875 C-140.36671875 153.63773438 -139.6396875 152.76375 -138.890625 151.86328125 C-138.25640625 151.10789062 -137.6221875 150.3525 -136.96875 149.57421875 C-135.28257173 147.33807083 -135.28257173 147.33807083 -135.640625 143.48828125 C-137.30597174 141.1880106 -137.30597174 141.1880106 -139.578125 138.92578125 C-142.90987575 135.37504218 -146.08878696 131.78289469 -149.140625 127.98828125 C-152.0487588 124.39350475 -155.02603832 120.90567497 -158.140625 117.48828125 C-161.16344921 114.16838639 -164.06574661 110.79064013 -166.890625 107.30078125 C-172.63321923 100.2122665 -178.64478723 93.36222799 -184.640625 86.48828125 C-206.22087191 61.74754051 -206.22087191 61.74754051 -207.640625 57.48828125 C-208.300625 57.48828125 -208.960625 57.48828125 -209.640625 57.48828125 C-209.640625 56.82828125 -209.640625 56.16828125 -209.640625 55.48828125 C-201.83102042 55.2084004 -194.02271599 55.01635102 -186.20922852 54.8840332 C-183.55220514 54.83506141 -180.90176351 54.75398008 -178.24536133 54.65844727 C-174.41925129 54.52433619 -170.59756987 54.4624929 -166.76953125 54.4140625 C-165.59105118 54.35728836 -164.41257111 54.30051422 -163.19837952 54.24201965 C-158.01613368 54.238177 -154.90153633 54.39442984 -150.89547729 57.86972046 C-147.59970487 61.81820317 -144.80601507 65.81552441 -142.640625 70.48828125 C-141.980625 70.48828125 -141.320625 70.48828125 -140.640625 70.48828125 C-139.28680351 71.9756636 -138.00922614 73.53258676 -136.765625 75.11328125 C-133.17505303 79.60149622 -129.51910587 84.01050511 -125.765625 88.36328125 C-124.74994205 89.54552314 -123.73431743 90.72781513 -122.71875 91.91015625 C-121.16878047 93.71285967 -119.61783358 95.51468766 -118.06445312 97.31445312 C-116.54434308 99.07747714 -115.02954324 100.84493994 -113.515625 102.61328125 C-113.05430176 103.14550293 -112.59297852 103.67772461 -112.11767578 104.22607422 C-109.88157085 106.84594425 -107.99480717 109.30823548 -106.640625 112.48828125 C-102.40364964 108.42586293 -98.71230763 104.04260243 -95.015625 99.48828125 C-93.76761276 97.96167878 -92.51890769 96.43564246 -91.26953125 94.91015625 C-90.65480957 94.15927734 -90.04008789 93.40839844 -89.40673828 92.63476562 C-86.94834278 89.64690092 -84.45743347 86.68769856 -81.953125 83.73828125 C-81.51291016 83.21959473 -81.07269531 82.7009082 -80.61914062 82.16650391 C-79.2937706 80.6064126 -77.96727859 79.04728111 -76.640625 77.48828125 C-71.44750518 71.38022649 -66.25936136 65.27314059 -61.203125 59.05078125 C-57.24619082 54.18778701 -53.17626558 49.43127922 -49.08447266 44.68212891 C-45.29018207 40.26934842 -41.58985344 35.78805541 -37.921875 31.26953125 C-35.34219503 28.12444197 -32.71425568 25.02352811 -30.078125 21.92578125 C-21.92854029 12.91938458 -21.92854029 12.91938458 -15.32104492 2.88012695 C-10.86681217 -1.09456275 -5.74989681 -0.12321345 0 0 Z " fill="#3ACC4D" transform="translate(960.640625,242.51171875)"/>
      <path d="M0 0 C1.31851456 -0.01073296 1.31851456 -0.01073296 2.66366577 -0.02168274 C3.63044754 -0.02437164 4.59722931 -0.02706055 5.5933075 -0.02983093 C7.11788574 -0.03968773 7.11788574 -0.03968773 8.67326355 -0.04974365 C12.04724698 -0.06950493 15.42118587 -0.08114511 18.79521179 -0.09111023 C20.52072801 -0.09722352 20.52072801 -0.09722352 22.28110313 -0.10346031 C28.36873064 -0.12433239 34.45633552 -0.13862961 40.54399109 -0.147995 C46.83915261 -0.15906622 53.13396131 -0.19347147 59.42899799 -0.23316669 C64.26310901 -0.25928204 69.09713529 -0.26768229 73.93131065 -0.27127647 C76.25217766 -0.27615499 78.57304056 -0.28780472 80.89383888 -0.30631447 C84.1403023 -0.33059884 87.38584402 -0.32976023 90.63237 -0.32279968 C91.59307907 -0.33560974 92.55378815 -0.3484198 93.54360962 -0.36161804 C97.72594415 -0.32889424 100.15980103 -0.23526648 103.81784058 1.92654419 C107.5661097 6.11112464 108.05789733 9.12975671 108.06762695 14.73123169 C108.07336527 15.72125302 108.07336527 15.72125302 108.07921952 16.73127478 C108.08953253 18.94135848 108.08556065 21.15118156 108.08158875 23.36128235 C108.08593624 24.94655599 108.09111952 26.53182753 108.09707642 28.11709595 C108.11047562 32.42300054 108.11104392 36.7288174 108.10851312 41.03473878 C108.10744373 44.63055684 108.1123261 48.22635713 108.11711854 51.82217139 C108.12821755 60.30755261 108.12864934 68.79288957 108.12260437 77.27827454 C108.11656736 86.02719096 108.12886774 94.77594645 108.15017444 103.52483541 C108.16780065 111.03919875 108.17379007 118.55351091 108.1705367 126.06789416 C108.16872485 130.55450132 108.17134989 135.04099375 108.18525124 139.52758217 C108.19784105 143.74899179 108.19587461 147.97015108 108.18284035 152.19155693 C108.18047728 153.73828847 108.18319959 155.28503769 108.19146347 156.83174896 C108.20195636 158.94884091 108.1938109 161.06509688 108.18115234 163.18215942 C108.18132009 164.36515531 108.18148783 165.54815119 108.18166065 166.76699543 C107.60290214 171.98756711 106.15201372 175.89085659 102.23077393 179.55331421 C97.68984618 181.66719262 93.97525965 181.70172039 89.0254364 181.64888 C87.57313377 181.65698448 87.57313377 181.65698448 86.0914917 181.66525269 C82.90127193 181.67772768 79.71195669 181.66125783 76.52177429 181.64326477 C74.30030266 181.64341977 72.07883076 181.64490897 69.85736084 181.64767456 C65.20623287 181.64905797 60.55541349 181.63650891 55.90434265 181.61372375 C49.94335618 181.58532308 43.98288173 181.58808187 38.02185726 181.60081387 C33.43648913 181.60776897 28.85123933 181.59998389 24.26588631 181.58755684 C22.067856 181.58304189 19.869813 181.58270591 17.67178154 181.58662224 C14.60059948 181.58953316 11.53012304 181.57303315 8.45903015 181.55122375 C7.55135895 181.5557254 6.64368774 181.56022705 5.70851135 181.56486511 C0.92731752 181.50846329 -2.37284591 181.32765396 -6.19306946 178.14717102 C-10.01015267 174.18928593 -10.69426008 171.69703213 -10.70100403 166.23957825 C-10.70724399 165.55688071 -10.71348395 164.87418317 -10.71991301 164.17079782 C-10.73583128 161.88978142 -10.72324443 159.60983542 -10.71064758 157.32881165 C-10.71606926 155.69088112 -10.72319218 154.05295548 -10.73188782 152.41503906 C-10.75011879 147.97080459 -10.74305465 143.52694167 -10.73037148 139.08270073 C-10.72024262 134.43120703 -10.72963684 129.77974508 -10.73591614 125.12825012 C-10.74319288 117.31695343 -10.73360415 109.50580802 -10.71455383 101.6945343 C-10.69278502 92.66431825 -10.69983637 83.63446345 -10.72185946 74.60425615 C-10.7400127 66.85039443 -10.74257215 59.09664144 -10.73210478 51.34276533 C-10.72586943 46.71202136 -10.72503534 42.08144717 -10.73825073 37.45071411 C-10.74980754 33.09706529 -10.7417868 28.74388211 -10.71867371 24.39028358 C-10.71338568 22.79273057 -10.71490204 21.19513835 -10.72372437 19.59760094 C-10.73466054 17.41612668 -10.72094218 15.23614312 -10.70100403 13.05476379 C-10.69949593 11.83435143 -10.69798782 10.61393906 -10.69643402 9.35654449 C-10.09677699 5.53322536 -8.87864539 3.88088562 -6.19306946 1.14717102 C-3.88724761 -0.0057399 -2.56574503 0.01431477 0 0 Z " fill="#0A0E1C" transform="translate(991.1930694580078,298.8528289794922)"/>
      <path d="M0 0 C1.31851456 -0.01073296 1.31851456 -0.01073296 2.66366577 -0.02168274 C3.63044754 -0.02437164 4.59722931 -0.02706055 5.5933075 -0.02983093 C7.11788574 -0.03968773 7.11788574 -0.03968773 8.67326355 -0.04974365 C12.04724698 -0.06950493 15.42118587 -0.08114511 18.79521179 -0.09111023 C20.52072801 -0.09722352 20.52072801 -0.09722352 22.28110313 -0.10346031 C28.36873064 -0.12433239 34.45633552 -0.13862961 40.54399109 -0.147995 C46.83915261 -0.15906622 53.13396131 -0.19347147 59.42899799 -0.23316669 C64.26310901 -0.25928204 69.09713529 -0.26768229 73.93131065 -0.27127647 C76.25217766 -0.27615499 78.57304056 -0.28780472 80.89383888 -0.30631447 C84.1403023 -0.33059884 87.38584402 -0.32976023 90.63237 -0.32279968 C91.59307907 -0.33560974 92.55378815 -0.3484198 93.54360962 -0.36161804 C97.72594415 -0.32889424 100.15980103 -0.23526648 103.81784058 1.92654419 C107.5661097 6.11112464 108.05789733 9.12975671 108.06762695 14.73123169 C108.07336527 15.72125302 108.07336527 15.72125302 108.07921952 16.73127478 C108.08953253 18.94135848 108.08556065 21.15118156 108.08158875 23.36128235 C108.08593624 24.94655599 108.09111952 26.53182753 108.09707642 28.11709595 C108.11047562 32.42300054 108.11104392 36.7288174 108.10851312 41.03473878 C108.10744373 44.63055684 108.1123261 48.22635713 108.11711854 51.82217139 C108.12821755 60.30755261 108.12864934 68.79288957 108.12260437 77.27827454 C108.11656736 86.02719096 108.12886774 94.77594645 108.15017444 103.52483541 C108.16780065 111.03919875 108.17379007 118.55351091 108.1705367 126.06789416 C108.16872485 130.55450132 108.17134989 135.04099375 108.18525124 139.52758217 C108.19784105 143.74899179 108.19587461 147.97015108 108.18284035 152.19155693 C108.18047728 153.73828847 108.18319959 155.28503769 108.19146347 156.83174896 C108.20195636 158.94884091 108.1938109 161.06509688 108.18115234 163.18215942 C108.18132009 164.36515531 108.18148783 165.54815119 108.18166065 166.76699543 C107.60290214 171.98756711 106.15201372 175.89085659 102.23077393 179.55331421 C97.68984618 181.66719262 93.97525965 181.70172039 89.0254364 181.64888 C87.57313377 181.65698448 87.57313377 181.65698448 86.0914917 181.66525269 C82.90127193 181.67772768 79.71195669 181.66125783 76.52177429 181.64326477 C74.30030266 181.64341977 72.07883076 181.64490897 69.85736084 181.64767456 C65.20623287 181.64905797 60.55541349 181.63650891 55.90434265 181.61372375 C49.94335618 181.58532308 43.98288173 181.58808187 38.02185726 181.60081387 C33.43648913 181.60776897 28.85123933 181.59998389 24.26588631 181.58755684 C22.067856 181.58304189 19.869813 181.58270591 17.67178154 181.58662224 C14.60059948 181.58953316 11.53012304 181.57303315 8.45903015 181.55122375 C7.55135895 181.5557254 6.64368774 181.56022705 5.70851135 181.56486511 C0.92731752 181.50846329 -2.37284591 181.32765396 -6.19306946 178.14717102 C-10.01015267 174.18928593 -10.69426008 171.69703213 -10.70100403 166.23957825 C-10.70724399 165.55688071 -10.71348395 164.87418317 -10.71991301 164.17079782 C-10.73583128 161.88978142 -10.72324443 159.60983542 -10.71064758 157.32881165 C-10.71606926 155.69088112 -10.72319218 154.05295548 -10.73188782 152.41503906 C-10.75011879 147.97080459 -10.74305465 143.52694167 -10.73037148 139.08270073 C-10.72024262 134.43120703 -10.72963684 129.77974508 -10.73591614 125.12825012 C-10.74319288 117.31695343 -10.73360415 109.50580802 -10.71455383 101.6945343 C-10.69278502 92.66431825 -10.69983637 83.63446345 -10.72185946 74.60425615 C-10.7400127 66.85039443 -10.74257215 59.09664144 -10.73210478 51.34276533 C-10.72586943 46.71202136 -10.72503534 42.08144717 -10.73825073 37.45071411 C-10.74980754 33.09706529 -10.7417868 28.74388211 -10.71867371 24.39028358 C-10.71338568 22.79273057 -10.71490204 21.19513835 -10.72372437 19.59760094 C-10.73466054 17.41612668 -10.72094218 15.23614312 -10.70100403 13.05476379 C-10.69949593 11.83435143 -10.69798782 10.61393906 -10.69643402 9.35654449 C-10.09677699 5.53322536 -8.87864539 3.88088562 -6.19306946 1.14717102 C-3.88724761 -0.0057399 -2.56574503 0.01431477 0 0 Z M0.80693054 11.14717102 C0.80693054 63.28717102 0.80693054 115.42717102 0.80693054 169.14717102 C32.15693054 169.14717102 63.50693054 169.14717102 95.80693054 169.14717102 C95.80693054 117.00717102 95.80693054 64.86717102 95.80693054 11.14717102 C64.45693054 11.14717102 33.10693054 11.14717102 0.80693054 11.14717102 Z " fill="#F0F0F1" transform="translate(991.1930694580078,298.8528289794922)"/>
      <path d="M0 0 C8.20258206 0.66149855 16.40717037 3.1382363 22.875 8.3125 C23.67550781 8.89902344 24.47601562 9.48554688 25.30078125 10.08984375 C31.88298296 15.77311047 35.61777371 24.20014592 36.73046875 32.72265625 C37.26110287 42.23104596 34.93575437 51.82568578 28.875 59.3125 C25.1910708 62.4701536 21.82240607 62.70908848 17.15625 62.90625 C14.875 62.3125 14.875 62.3125 12.55078125 59.75390625 C10.04851706 56.94266827 10.04851706 56.94266827 6.38671875 57.18359375 C5.12472656 57.37050781 3.86273437 57.55742187 2.5625 57.75 C-2.75252433 58.34691911 -6.83168413 58.61682811 -11.48046875 55.6796875 C-16.28376416 51.68644904 -19.84886184 47.56557698 -21.125 41.3125 C-21.70991373 34.05956975 -20.2811387 28.70071796 -16.375 22.5625 C-11.58321441 17.77071441 -7.89855616 16.05466333 -1.1875 15.75 C5.55511571 15.99441982 9.68839876 18.12589876 14.40234375 22.83984375 C17.89185566 26.81485297 20.13586177 30.24140249 20.10546875 35.5703125 C20.10353516 36.36050781 20.10160156 37.15070313 20.09960938 37.96484375 C20.08124023 39.18880859 20.08124023 39.18880859 20.0625 40.4375 C20.06185547 41.26121094 20.06121094 42.08492188 20.06054688 42.93359375 C20.01563798 49.03122404 20.01563798 49.03122404 18.875 51.3125 C21.59593852 50.31482254 22.66832845 49.72511794 23.98828125 47.08984375 C26.46327392 39.33777421 25.42872537 30.56441112 21.875 23.3125 C17.88035619 17.01790975 11.94077134 13.85084836 4.85546875 11.69921875 C-2.47565657 10.26769724 -8.32270322 11.12584786 -14.859375 14.75390625 C-19.90037635 18.22176752 -23.30949869 22.44892146 -25.125 28.3125 C-26.25730324 40.48249893 -26.25730324 40.48249893 -22.453125 51.7421875 C-17.01711804 58.16946632 -10.91414374 62.08017861 -2.375 62.8125 C-1.63765625 62.8434375 -0.9003125 62.874375 -0.140625 62.90625 C2.41429235 63.42119458 3.33764519 64.23168536 4.875 66.3125 C4.75 69.375 4.75 69.375 3.875 72.3125 C-0.16034428 75.00272952 -3.46666208 74.95644671 -8.125 74.3125 C-19.3636958 71.20071057 -28.24071445 64.36723187 -34.1875 54.33203125 C-38.1545513 45.78634156 -39.41334516 35.59533625 -36.921875 26.4375 C-32.90577308 15.72789488 -26.34061513 8.23841203 -16.0078125 3.30078125 C-10.75693034 1.20655782 -5.6061374 0.56061374 0 0 Z " fill="#F7F7F7" transform="translate(1040.125,351.6875)"/>
      <path d="M0 0 C4.66281183 3.21096432 8.5667782 7.21986585 10.37109375 12.6328125 C11.03533626 20.54678751 11.48564086 27.99224183 6.92578125 34.83203125 C2.48448592 39.97634569 -2.89134442 43.04848324 -9.6875 43.88671875 C-15.69833435 44.20965786 -20.57826398 42.93550936 -25.62890625 39.6328125 C-30.65701012 35.04526631 -34.20352408 30.49587615 -34.96484375 23.58203125 C-35.07042812 14.7657365 -33.96849185 9.4861805 -28.19140625 2.8203125 C-19.44200206 -4.64869108 -10.09175001 -5.51031592 0 0 Z " fill="#F4F4F4" transform="translate(1195.62890625,535.3671875)"/>
      <path d="M0 0 C5.99305746 4.97323046 8.58052382 11.28463955 9.4375 18.875 C9.15942157 25.28344379 6.6155364 31.10174472 2.5 35.9375 C1.675 36.618125 0.85 37.29875 0 38 C-0.680625 38.5775 -1.36125 39.155 -2.0625 39.75 C-7.52085876 43.27152178 -14.78591357 42.51349936 -21 42 C-26.96594399 40.48682842 -30.41938573 37.01059389 -33.8125 32.00390625 C-37.45149894 25.86309554 -38.00227644 19.49927017 -36.46484375 12.59765625 C-34.58933276 6.43819119 -32.1261554 2.12809758 -26.5 -1.25 C-17.58571863 -5.70714069 -8.61757693 -4.9682969 0 0 Z " fill="#F6F5F6" transform="translate(411,536)"/>
      <path d="M0 0 C29.62068966 0 29.62068966 0 40 7 C40 7.66 40 8.32 40 9 C40.99 9.33 41.98 9.66 43 10 C48.07063786 15.49914247 48.61859537 21.96260343 48.45019531 29.11547852 C47.95959482 39.02911277 45.24071722 45.17763533 38 52 C30.36188128 57.72858904 22.1468146 57.24758295 13 57 C13.495 54.03 13.495 54.03 14 51 C16.86791541 49.99235405 19.71068463 49.06767611 22.671875 48.375 C28.414097 47.00928234 32.39304134 46.00320072 36 41 C39.10305411 34.94165626 38.85887317 27.14674703 37.5 20.5859375 C36.00325678 16.04468251 34.06496513 13.45788589 30 11 C22.67478504 8.27779291 22.67478504 8.27779291 9 8 C9 24.17 9 40.34 9 57 C6.03 57 3.06 57 0 57 C0 38.19 0 19.38 0 0 Z " fill="#F6F5F5" transform="translate(999,521)"/>
      <path d="M0 0 C6 6.71889401 6 6.71889401 6 10 C2.29115643 10.2877551 -1.3002009 10.44569423 -5 10 C-7.3125 7.625 -7.3125 7.625 -9 5 C-14.01968667 2.49015666 -19.49847498 2.29378205 -25 3 C-30.89602188 5.069761 -34.55516306 9.03808426 -37.25 14.5625 C-38.78014802 21.57567843 -39.23013569 28.44722173 -35.9375 35 C-33.36253479 38.9411273 -30.6145278 41.72471232 -26 43 C-18.8455622 44.02487814 -13.44581155 43.56216783 -7.5234375 39.2890625 C-5.87532365 37.9306873 -5.87532365 37.9306873 -4 36 C-1.6171875 35.8046875 -1.6171875 35.8046875 1.125 35.875 C2.03507812 35.89304687 2.94515625 35.91109375 3.8828125 35.9296875 C4.58148438 35.95289063 5.28015625 35.97609375 6 36 C3.55523613 43.1305613 -0.24584431 46.44641183 -6.68359375 49.984375 C-14.57536414 53.44451042 -24.0876835 52.97065836 -32.0078125 49.8984375 C-39.71085807 46.42451499 -44.0265126 40.89023487 -47.15234375 33.14453125 C-48.88622563 26.71238878 -49.34041282 18.4417086 -46.875 12.125 C-41.75579891 3.59299818 -36.97114234 -1.76082162 -27.5 -5.3125 C-18.00690361 -7.17721536 -8.15546143 -5.37519049 0 0 Z " fill="#F5F5F5" transform="translate(363,526)"/>
      <path d="M0 0 C3.7137346 2.77411501 5.14485285 5.36935161 6.18359375 9.8359375 C-1.38107941 10.76222401 -1.38107941 10.76222401 -4.83203125 8.53515625 C-5.99403827 7.47671942 -7.12392683 6.38141601 -8.2109375 5.24609375 C-12.07748171 1.84993205 -17.8834041 2.38405287 -22.765625 2.42578125 C-27.5424462 3.06799153 -30.71363769 5.20233383 -33.81640625 8.8359375 C-36.64918577 13.41044921 -37.36465614 17.4147293 -37.31640625 22.7109375 C-37.31213623 23.41766602 -37.30786621 24.12439453 -37.3034668 24.85253906 C-37.06079339 32.28537671 -34.73737597 36.02146147 -29.56640625 41.00390625 C-24.49006683 44.38572896 -18.67632428 43.62210463 -12.81640625 42.8359375 C-8.75930712 41.19737735 -5.88400676 38.90353801 -2.81640625 35.8359375 C-0.65234375 35.640625 -0.65234375 35.640625 1.80859375 35.7109375 C2.62585938 35.72898437 3.443125 35.74703125 4.28515625 35.765625 C4.91164063 35.78882813 5.538125 35.81203125 6.18359375 35.8359375 C3.7231019 43.01237207 -0.09703246 46.30285168 -6.59765625 49.8203125 C-13.58494016 53.01871711 -22.4508573 53.13396072 -29.74609375 50.96484375 C-37.18976311 47.51451069 -42.08975728 42.09309601 -45.81640625 34.8359375 C-47.96213651 27.52678038 -48.5448014 16.25167585 -45.19140625 9.2109375 C-44.0703125 7.46875 -44.0703125 7.46875 -42.81640625 5.8359375 C-42.39230469 5.21460938 -41.96820312 4.59328125 -41.53125 3.953125 C-31.58707833 -9.28730413 -12.82000022 -8.2158281 0 0 Z " fill="#F5F5F5" transform="translate(737.81640625,526.1640625)"/>
      <path d="M0 0 C1.30388672 0.00902344 2.60777344 0.01804687 3.95117188 0.02734375 C7.15513832 0.05081603 10.35872264 0.08365273 13.5625 0.125 C13.5625 2.435 13.5625 4.745 13.5625 7.125 C12.90241943 7.14481934 12.24233887 7.16463867 11.56225586 7.18505859 C8.54113636 7.28093352 5.52064992 7.39035753 2.5 7.5 C1.46166016 7.5309375 0.42332031 7.561875 -0.64648438 7.59375 C-10.36054325 7.8079545 -10.36054325 7.8079545 -18.8125 12.0625 C-22.31407837 16.506811 -21.9036285 21.72772259 -21.4375 27.125 C-20.34347718 31.25965177 -19.09149615 33.68900257 -15.4375 36.125 C-8.63426112 37.14786459 -3.99352812 36.06051992 1.5625 32.125 C4.93532276 28.75217724 3.91899443 24.00090405 4.0234375 19.41015625 C4.5625 16.125 4.5625 16.125 6.2890625 14.18359375 C8.5625 13.125 8.5625 13.125 13.5625 13.125 C13.5625 23.685 13.5625 34.245 13.5625 45.125 C10.5925 45.125 7.6225 45.125 4.5625 45.125 C4.5625 42.815 4.5625 40.505 4.5625 38.125 C3.9025 38.125 3.2425 38.125 2.5625 38.125 C2.2840625 39.0221875 2.2840625 39.0221875 2 39.9375 C-0.1345754 43.18576691 -2.79617002 44.2146675 -6.4375 45.125 C-13.16119841 46.04550633 -18.2251154 45.58721173 -23.78515625 41.55078125 C-28.53391766 37.45315024 -31.08506481 33.16336235 -31.80859375 26.92578125 C-31.98832114 17.48480738 -30.6911244 10.60249937 -24.0625 3.625 C-16.40977373 -0.74798644 -8.59182519 -0.11276499 0 0 Z " fill="#F3F3F3" transform="translate(857.4375,532.875)"/>
      <path d="M0 0 C4.73364528 4.0881482 7.48242244 7.92968974 9 14 C9 16.97 9 19.94 9 23 C-1.23 23 -11.46 23 -22 23 C-21 18 -21 18 -19 16 C-17.02880859 15.77294922 -17.02880859 15.77294922 -14.6484375 15.8046875 C-13.79765625 15.81113281 -12.946875 15.81757812 -12.0703125 15.82421875 C-10.73613281 15.84935547 -10.73613281 15.84935547 -9.375 15.875 C-8.4778125 15.88402344 -7.580625 15.89304687 -6.65625 15.90234375 C-4.43723414 15.9259503 -2.21874923 15.9588769 0 16 C-2.09640061 10.36366819 -2.09640061 10.36366819 -6 6 C-10.7806244 4.40645853 -15.13454054 4.29527087 -19.8125 6.0625 C-23.70120111 9.50677813 -24.74653284 12.92212635 -25.35546875 17.9140625 C-25.70157216 24.78112003 -25.70157216 24.78112003 -22.625 30.6875 C-18.73588008 34.11362946 -16.39851974 34.32489307 -11.3671875 34.30078125 C-8.85096733 33.98106351 -7.54157733 33.37201356 -5.4375 32 C-1.12732345 29.49226092 1.11655116 29.65730184 6 30 C5.5248459 34.27638694 3.12116265 36.23351492 0 39 C-5.42010621 42.70153595 -10.4305904 43.83274206 -17 43 C-23.57367144 40.98407409 -28.86230535 38.00817747 -32.1875 31.7734375 C-35.63490259 24.04072196 -36.22184645 17.81477006 -33.375 9.8125 C-31.01206775 4.4246793 -27.96370656 1.00767219 -23.0625 -2.3125 C-14.88019605 -5.03993465 -7.55803961 -3.9189835 0 0 Z " fill="#F6F6F6" transform="translate(1289,536)"/>
      <path d="M0 0 C4.29941799 2.96292128 7.06152669 7.00977214 9.375 11.63671875 C9.375 15.59671875 9.375 19.55671875 9.375 23.63671875 C-0.855 23.63671875 -11.085 23.63671875 -21.625 23.63671875 C-20.625 18.63671875 -20.625 18.63671875 -18.625 16.63671875 C-16.65380859 16.40966797 -16.65380859 16.40966797 -14.2734375 16.44140625 C-13.42265625 16.44785156 -12.571875 16.45429687 -11.6953125 16.4609375 C-10.36113281 16.48607422 -10.36113281 16.48607422 -9 16.51171875 C-8.1028125 16.52074219 -7.205625 16.52976562 -6.28125 16.5390625 C-4.06223414 16.56266905 -1.84374923 16.59559565 0.375 16.63671875 C-0.23846842 15.34203694 -0.85977514 14.05106723 -1.484375 12.76171875 C-1.82952148 12.04242187 -2.17466797 11.323125 -2.53027344 10.58203125 C-4.13237784 7.73511601 -5.56433962 6.74968616 -8.625 5.63671875 C-12.54886002 5.22945184 -16.99596807 4.96178094 -20.625 6.63671875 C-21.84190533 8.4020147 -21.84190533 8.4020147 -22.625 10.63671875 C-22.99625 11.33796875 -23.3675 12.03921875 -23.75 12.76171875 C-25.47346438 18.42453029 -25.70305206 24.31463653 -22.875 29.63671875 C-20.32664424 33.03452643 -18.63718804 34.289159 -14.4765625 35.0078125 C-9.89839793 35.14435425 -8.2229604 35.13705297 -4.5625 32.07421875 C-1.625 29.63671875 -1.625 29.63671875 0.51953125 29.52734375 C2.75 29.82421875 2.75 29.82421875 6.375 30.63671875 C6.15820856 34.43056896 5.4313797 35.58033905 2.6875 38.32421875 C-2.80576867 42.86986156 -9.52163918 43.2029327 -16.36328125 43.0703125 C-22.52323748 42.25144407 -26.28725335 39.32650255 -30.28515625 34.7265625 C-35.04021009 27.6403402 -34.64219931 19.31683171 -33.18359375 11.171875 C-31.56712178 5.87513352 -28.27946873 2.52105169 -23.625 -0.36328125 C-15.16524656 -4.32411988 -8.28905168 -4.40987658 0 0 Z " fill="#F6F5F5" transform="translate(940.625,535.36328125)"/>
      <path d="M0 0 C4.14974249 3.66404367 6.90041937 7.50209685 8 13 C8 15.97 8 18.94 8 22 C-2.23 22 -12.46 22 -23 22 C-22 17 -22 17 -21 15 C-14.4 15 -7.8 15 -1 15 C-3.9036569 7.97698378 -3.9036569 7.97698378 -9 4 C-12.40255614 3.33608661 -15.58766641 3.40270336 -19 4 C-22.40651555 6.55488666 -24.40072756 9.09221256 -26 13 C-26.62977827 18.25791623 -27.16577147 24.01495527 -24.1875 28.625 C-21.95051534 31.0537262 -20.26853728 32.81708358 -16.9140625 33.30078125 C-12.11937481 33.32532743 -8.87997748 33.1524817 -5 30 C-4.67 29.34 -4.34 28.68 -4 28 C-1.03 28 1.94 28 5 28 C5.33 28.66 5.66 29.32 6 30 C1.9214441 35.21906393 -1.37106532 39.26126303 -8 41 C-15.31122045 41.79777129 -22.0667373 41.75455649 -28 37 C-33.928807 30.66094073 -36.56245637 24.60735157 -36.375 15.9140625 C-35.53295137 9.37064295 -32.42312823 3.97319855 -27.625 -0.5 C-18.5833136 -7.42804543 -8.98417072 -5.89077421 0 0 Z " fill="#F6F6F6" transform="translate(560,537)"/>
      <path d="M0 0 C5.40517377 3.86587428 7.64419592 8.57716543 9 15 C9.38095238 20.23809524 9.38095238 20.23809524 8 23 C-1.9 23 -11.8 23 -22 23 C-22 18 -22 18 -20 16 C-17.93701172 15.77294922 -17.93701172 15.77294922 -15.4296875 15.8046875 C-14.53378906 15.81113281 -13.63789062 15.81757812 -12.71484375 15.82421875 C-11.30912109 15.84935547 -11.30912109 15.84935547 -9.875 15.875 C-8.45767578 15.88853516 -8.45767578 15.88853516 -7.01171875 15.90234375 C-4.67422708 15.92595478 -2.33723877 15.95888484 0 16 C-2.72406653 9.42878885 -2.72406653 9.42878885 -8 5 C-11.40255614 4.33608661 -14.58766641 4.40270336 -18 5 C-21.40982828 7.55737121 -23.38608684 10.09559874 -25 14 C-25.71196638 20.12106163 -25.72527434 25.86169056 -22 31 C-18.10897105 34.24252412 -14.96864484 34.443629 -10 34 C-7.29534258 33.13545562 -7.29534258 33.13545562 -5 32 C-3.515 31.505 -3.515 31.505 -2 31 C-2 30.34 -2 29.68 -2 29 C1.375 28.875 1.375 28.875 5 29 C5.66 29.66 6.32 30.32 7 31 C3.72099379 36.54908744 0.30484011 39.89838663 -6 42 C-13.18149018 42.50464526 -19.79136418 42.92791246 -26 39 C-30.79829362 34.48067693 -33.69213691 30.19676442 -34.3359375 23.51171875 C-34.48155739 9.25553109 -34.48155739 9.25553109 -30 4 C-20.69301635 -4.64636268 -11.11058449 -6.60462522 0 0 Z " fill="#F6F6F6" transform="translate(812,536)"/>
      <path d="M0 0 C3.4126534 3.19188876 5.57992365 6.23913472 6 11 C-1.25867508 11.61514196 -1.25867508 11.61514196 -4.9375 8.5625 C-5.618125 7.716875 -6.29875 6.87125 -7 6 C-8.2224093 4.55755249 -8.2224093 4.55755249 -11.875 4.75 C-14.5635816 4.78861518 -15.7295699 4.83610297 -18.0625 6.25 C-19.19697678 7.9656631 -19.19697678 7.9656631 -18.76171875 9.98828125 C-17.62814368 12.98208209 -15.37977444 13.64604359 -12.59765625 14.93359375 C-8.40490117 16.65483004 -4.1367884 18.17058691 0.14453125 19.65625 C3.2131348 21.10029873 4.40102874 22.04217602 6 25 C6.81231275 28.72310011 6.7948786 32.39325821 5.0859375 35.84765625 C2.23813324 39.58654765 -0.45700039 41.17400007 -5 42 C-13.83305574 42.67662683 -19.90614887 42.30992219 -26.9375 36.625 C-29 34 -29 34 -29.3125 31.1875 C-29.209375 30.465625 -29.10625 29.74375 -29 29 C-26.03 29 -23.06 29 -20 29 C-19.67 30.32 -19.34 31.64 -19 33 C-16.21398777 33.92867074 -14.38933911 34.16342217 -11.5 34.1875 C-10.33984375 34.20876953 -10.33984375 34.20876953 -9.15625 34.23046875 C-6.70319944 34.13661528 -6.70319944 34.13661528 -4 32 C-3.74969023 29.41619823 -3.74969023 29.41619823 -4 27 C-8.5006345 24.90395982 -12.9213052 22.97290458 -17.6875 21.5625 C-22.23865649 20.03746335 -24.92199665 18.78831182 -28 15 C-28.92066245 11.13439804 -28.93478572 7.86378099 -28 4 C-25.33394966 -0.05111553 -21.56764536 -2.06363792 -17 -3.4375 C-10.74193027 -4.62145914 -5.36435958 -3.38187887 0 0 Z " fill="#F5F5F5" transform="translate(1101,536)"/>
      <path d="M0 0 C4.31066792 2.56999652 7.65942993 5.91794902 9.3125 10.75 C9.374375 11.28625 9.43625 11.8225 9.5 12.375 C2.09259259 12.86882716 2.09259259 12.86882716 -0.75 10.5 C-1.3275 9.79875 -1.905 9.0975 -2.5 8.375 C-6.11495631 5.79288835 -10.21770375 5.70795001 -14.5 6.375 C-17.8403376 8.0451688 -19.84389932 9.36102622 -21.875 12.5 C-23.43108909 19.65800981 -23.15622738 25.97660209 -19.5 32.375 C-16.95213644 35.30032482 -15.5503417 35.36931626 -11.625 35.8125 C-6.99393866 35.65668859 -3.76983125 33.64483125 -0.5 30.375 C1.01928038 30.30320036 2.54167482 30.29107993 4.0625 30.3125 C4.88878906 30.32152344 5.71507812 30.33054687 6.56640625 30.33984375 C7.52353516 30.35724609 7.52353516 30.35724609 8.5 30.375 C8.41802415 33.16217889 7.93764605 34.89252767 6.05078125 36.97265625 C-0.63192904 42.87257618 -6.17278336 43.90917179 -15.05078125 43.7421875 C-21.8732055 43.01590451 -25.72205783 39.73168012 -30 34.5625 C-33.97669337 28.09765696 -33.39236436 20.6369996 -32.5 13.375 C-30.95814439 8.1669544 -26.79632388 3.64020615 -22.5 0.375 C-15.79872512 -2.96424071 -6.83351155 -3.123891 0 0 Z " fill="#F7F6F7" transform="translate(1146.5,534.625)"/>
      <path d="M0 0 C2.85914253 1.73691499 4.92300881 3.56700445 6.98046875 6.203125 C7.36921904 7.85774342 7.71149945 9.52486864 7.98046875 11.203125 C1.1183621 10.962771 -2.63207725 10.59815327 -8.01953125 6.203125 C-11.13794159 5.55873024 -13.90537092 5.53177522 -17.01953125 6.203125 C-19.77522572 8.38471645 -21.45541872 10.07489994 -23.01953125 13.203125 C-23.17047945 15.65603328 -23.25081689 18.06170509 -23.26953125 20.515625 C-23.2953125 21.83175781 -23.32109375 23.14789062 -23.34765625 24.50390625 C-23.00707907 28.34350853 -22.32163356 30.1675097 -20.01953125 33.203125 C-16.59033553 35.77502179 -13.18013639 35.705267 -9.01953125 35.203125 C-7.58540758 33.9283484 -6.15258903 32.6504629 -4.7734375 31.31640625 C-1.27694243 29.09702742 2.99897404 29.8490395 6.98046875 30.203125 C5.435381 36.04012317 1.0680521 39.25029451 -3.84765625 42.359375 C-9.53930262 44.5705182 -16.84827556 43.93980104 -22.51953125 42.015625 C-28.91284965 37.38046916 -31.81603126 32.7139798 -34.01953125 25.203125 C-34.8626082 18.45850944 -33.23293722 11.589007 -29.5078125 5.890625 C-21.64956833 -3.71585776 -10.96669683 -5.51246354 0 0 Z " fill="#F4F4F4" transform="translate(607.01953125,534.796875)"/>
      <path d="M0 0 C0.99 0.33 1.98 0.66 3 1 C3.32803732 5.70186821 2.65796641 8.12379898 0 12 C0 12.33 0 12.66 0 13 C-1.134375 13.309375 -2.26875 13.61875 -3.4375 13.9375 C-6.78775099 14.62924531 -6.78775099 14.62924531 -8 16 C-8.05313988 18.22892268 -8.0923872 20.45818249 -8.125 22.6875 C-8.52956611 29.30889867 -8.52956611 29.30889867 -10.515625 32.2265625 C-15.5179557 36.49325633 -20.08741796 37.36219131 -26.5546875 37.27734375 C-30.11913448 36.87306941 -31.70830713 35.72138528 -34 33 C-36.51850332 27.96299336 -36.59184533 22.52080721 -36 17 C-34.27953529 12.83466439 -31.73131743 10.48754496 -28 8 C-24.45126068 7.07685705 -21.13724526 6.88191483 -17.48046875 6.90234375 C-16.45888672 6.90556641 -15.43730469 6.90878906 -14.38476562 6.91210938 C-13.32966797 6.92048828 -12.27457031 6.92886719 -11.1875 6.9375 C-10.11306641 6.94201172 -9.03863281 6.94652344 -7.93164062 6.95117188 C-5.28770317 6.96292271 -2.64388048 6.97935213 0 7 C0 4.69 0 2.38 0 0 Z " fill="#0C111E" transform="translate(871,533)"/>
      <path d="M0 0 C3.89284994 2.01821933 6.37188654 4.95171789 8 9 C8.83231622 15.23269352 8.46704484 20.91783199 5.26171875 26.40625 C2.32463043 30.1162563 -0.97618329 30.87202291 -5.5 31.4375 C-9.73561934 30.90804758 -11.74726638 29.73525327 -15 27 C-18.50305086 22.04741085 -19.39614814 18.04125914 -19 12 C-18.02269379 7.56071079 -16.71640987 4.69893646 -13.4375 1.5 C-8.83017 -0.51047127 -4.94952734 -0.9400888 0 0 Z " fill="#0E111E" transform="translate(402,540)"/>
      <path d="M0 0 C3.56152352 2.86900506 5.58431725 6.28585727 6.25 10.8125 C6.74052505 17.31195695 5.49446435 22.14719859 1.25 27.1875 C-2.11945665 29.92518353 -5.42156477 30.16829097 -9.6875 30.08203125 C-13.27031025 29.61382309 -15.13486885 28.24518014 -17.75 25.8125 C-20.62686665 20.90554254 -21.70455736 15.42052448 -20.75 9.8125 C-19.30572262 5.02403273 -17.77076549 2.42881124 -13.4375 -0.1875 C-8.49724224 -1.52723092 -4.77724484 -2.06290118 0 0 Z " fill="#0B0E1B" transform="translate(1190.75,541.1875)"/>
      <path d="M0 0 C4.02009457 -0.07455949 8.03991733 -0.12879358 12.06054688 -0.16479492 C13.42617816 -0.17981428 14.79176176 -0.20023608 16.15722656 -0.22631836 C18.12803905 -0.26300137 20.09921408 -0.27818551 22.0703125 -0.29296875 C23.25383301 -0.3086792 24.43735352 -0.32438965 25.65673828 -0.34057617 C30.59066859 0.16204051 33.85134168 1.78752733 37.25 5.375 C40.64646913 10.46970369 41.24405228 14.37143946 41.1953125 20.48828125 C41.1924826 21.19147995 41.18965271 21.89467865 41.18673706 22.6191864 C41.17560151 24.85046892 41.15050997 27.08134017 41.125 29.3125 C41.1149616 30.83137438 41.10583726 32.3502551 41.09765625 33.86914062 C41.07568413 37.57955921 41.04120047 41.28973942 41 45 C37.7 45 34.4 45 31 45 C30.99589111 44.05680908 30.99178223 43.11361816 30.98754883 42.1418457 C30.96051141 38.62806324 30.91137159 35.11601318 30.84741211 31.6027832 C30.82427549 30.08498832 30.80984652 28.56703387 30.80444336 27.04907227 C30.79512078 24.8611357 30.75406849 22.67569313 30.70703125 20.48828125 C30.6913208 19.17384033 30.67561035 17.85939941 30.65942383 16.50512695 C29.83197624 12.10687999 28.58291094 10.63027233 25 8 C22.12433633 7.23231715 22.12433633 7.23231715 19.04296875 7.29296875 C17.37524414 7.24946289 17.37524414 7.24946289 15.67382812 7.20507812 C13.9480957 7.19637695 13.9480957 7.19637695 12.1875 7.1875 C11.01767578 7.16236328 9.84785156 7.13722656 8.64257812 7.11132812 C5.7613807 7.05252818 2.88170017 7.01619468 0 7 C0 4.69 0 2.38 0 0 Z " fill="#F0F0F0" transform="translate(476,533)"/>
      <path d="M0 0 C4.0384057 -0.0744389 8.07654293 -0.12873729 12.11547852 -0.16479492 C13.48794517 -0.17983432 14.86036414 -0.20027133 16.23266602 -0.22631836 C18.21088656 -0.26291221 20.18946514 -0.27816698 22.16796875 -0.29296875 C23.35672607 -0.3086792 24.5454834 -0.32438965 25.77026367 -0.34057617 C29.97726196 0.10305242 32.56876734 1.57961001 35.546875 4.53515625 C39.53838694 9.6023029 40.14214948 12.31060665 40.09765625 18.6328125 C40.0962413 19.38464813 40.09482635 20.13648376 40.09336853 20.91110229 C40.08776465 23.3157751 40.07521157 25.72035527 40.0625 28.125 C40.0574855 29.75390491 40.0529225 31.38281127 40.04882812 33.01171875 C40.03779397 37.00784827 40.02052679 41.00390842 40 45 C37.36 45 34.72 45 32 45 C31.98541748 44.14768799 31.97083496 43.29537598 31.95581055 42.41723633 C31.89456715 39.23928825 31.82037971 36.06197454 31.73754883 32.88452148 C31.70440194 31.51224042 31.67633829 30.13982638 31.65356445 28.76733398 C31.61983234 26.78862234 31.5659851 24.81028624 31.51171875 22.83203125 C31.48553467 21.64327393 31.45935059 20.4545166 31.43237305 19.22973633 C30.95358665 15.65330197 30.22486006 13.82462352 28 11 C24.48724274 8.3300116 21.85181776 7.61038597 17.48046875 7.48828125 C16.45888672 7.45283203 15.43730469 7.41738281 14.38476562 7.38085938 C12.80211914 7.34702148 12.80211914 7.34702148 11.1875 7.3125 C10.11306641 7.27833984 9.03863281 7.24417969 7.93164062 7.20898438 C5.28786467 7.12673357 2.64441079 7.05750791 0 7 C0 4.69 0 2.38 0 0 Z " fill="#F6F6F6" transform="translate(427,533)"/>
      <path d="M0 0 C4.39638531 2.23966799 6.92615591 4.50667114 9 9 C9 9.99 9 10.98 9 12 C8.15236084 12.029729 8.15236084 12.029729 7.28759766 12.06005859 C4.73292003 12.15518236 2.17907459 12.26491058 -0.375 12.375 C-1.26445313 12.4059375 -2.15390625 12.436875 -3.0703125 12.46875 C-3.92109375 12.50742187 -4.771875 12.54609375 -5.6484375 12.5859375 C-6.43395996 12.6173584 -7.21948242 12.6487793 -8.02880859 12.68115234 C-10.23002939 12.8399465 -10.23002939 12.8399465 -12 15 C-12.33 16.32 -12.66 17.64 -13 19 C-3.1 19 6.8 19 17 19 C17 19.33 17 19.66 17 20 C13.04 20.495 13.04 20.495 9 21 C9 21.99 9 22.98 9 24 C8.34 24 7.68 24 7 24 C6.7525 24.598125 6.505 25.19625 6.25 25.8125 C4.70462524 28.51690582 3.79352635 29.56742238 1 31 C-3.680805 31.74001298 -7.08593612 31.44010483 -11.375 29.375 C-14.97385213 26.11889569 -16.70797098 23.49035857 -17.28125 18.6015625 C-17.51780527 12.03715383 -16.4001841 7.6911155 -11.9375 2.6875 C-8.28789939 -0.49118441 -4.67987113 -0.62746875 0 0 Z " fill="#101521" transform="translate(932,540)"/>
      <path d="M0 0 C0.89203125 0.00902344 1.7840625 0.01804687 2.703125 0.02734375 C3.37859375 0.03894531 4.0540625 0.05054688 4.75 0.0625 C4.75 3.0325 4.75 6.0025 4.75 9.0625 C4.05132813 9.17207031 3.35265625 9.28164063 2.6328125 9.39453125 C1.72273438 9.55308594 0.81265625 9.71164062 -0.125 9.875 C-1.02992187 10.02582031 -1.93484375 10.17664063 -2.8671875 10.33203125 C-5.59412478 10.89301301 -5.59412478 10.89301301 -7.25 14.0625 C-7.62032217 17.36020342 -7.62032217 17.36020342 -7.6640625 21.13671875 C-7.68342865 21.8205513 -7.7027948 22.50438385 -7.7227478 23.2089386 C-7.78243997 25.38916625 -7.82888631 27.56944702 -7.875 29.75 C-7.91318943 31.2298405 -7.95224174 32.709659 -7.9921875 34.18945312 C-8.08813202 37.8136005 -8.17220151 41.43791257 -8.25 45.0625 C-11.22 45.0625 -14.19 45.0625 -17.25 45.0625 C-17.32445407 40.33027545 -17.3787447 35.59839589 -17.41479492 30.86572266 C-17.42983176 29.25758928 -17.45026672 27.64949656 -17.47631836 26.04150391 C-17.51292822 23.72287936 -17.52977722 21.40479951 -17.54296875 19.0859375 C-17.55845261 18.37319672 -17.57393646 17.66045593 -17.58988953 16.92611694 C-17.59145859 12.21564848 -16.72364195 9.06364265 -14.25 5.0625 C-9.63723583 0.68628784 -6.21213709 -0.08173865 0 0 Z " fill="#F0F0F0" transform="translate(1322.25,532.9375)"/>
      <path d="M0 0 C0 2.97 0 5.94 0 9 C-0.62648438 9.19335938 -1.25296875 9.38671875 -1.8984375 9.5859375 C-2.71570313 9.84632813 -3.53296875 10.10671875 -4.375 10.375 C-5.18710937 10.63023437 -5.99921875 10.88546875 -6.8359375 11.1484375 C-9.16459185 11.89854283 -9.16459185 11.89854283 -11 14 C-11.37346668 17.20538403 -11.37346668 17.20538403 -11.4140625 20.9765625 C-11.43342865 21.66181 -11.4527948 22.3470575 -11.4727478 23.05307007 C-11.53256831 25.24358644 -11.57893756 27.4341553 -11.625 29.625 C-11.66317763 31.10939802 -11.70222924 32.59377384 -11.7421875 34.078125 C-11.83827084 37.71854685 -11.92229282 41.35913436 -12 45 C-14.97 45 -17.94 45 -21 45 C-21.09924823 40.12538525 -21.17164581 35.25136503 -21.21972656 30.37597656 C-21.23978009 28.71929675 -21.26703029 27.06268718 -21.30175781 25.40625 C-21.35055512 23.01805242 -21.37303064 20.63079453 -21.390625 18.2421875 C-21.41127014 17.50757294 -21.43191528 16.77295837 -21.45318604 16.01608276 C-21.4554155 10.84854891 -20.2597404 7.97276194 -17 4 C-11.37203283 -0.0802762 -6.73056186 -0.11217603 0 0 Z " fill="#F0F1F1" transform="translate(772,533)"/>
      <path d="M0 0 C2.05078125 0.03255208 4.1015625 0.06510417 6.15234375 0.09765625 C5.46350941 4.97770795 3.53873876 9.17967374 1.58984375 13.66015625 C-1.84885843 21.67617238 -5.13469213 29.74178696 -8.32055664 37.86157227 C-8.63758545 38.66393311 -8.95461426 39.46629395 -9.28125 40.29296875 C-9.56025146 41.00469238 -9.83925293 41.71641602 -10.12670898 42.44970703 C-10.84765625 44.09765625 -10.84765625 44.09765625 -11.84765625 45.09765625 C-14.51824476 45.23880786 -17.17197863 45.14012732 -19.84765625 45.09765625 C-18.91738453 38.48089169 -16.57036856 32.67235564 -14.16015625 26.47265625 C-13.73798828 25.36019531 -13.31582031 24.24773438 -12.88085938 23.1015625 C-4.04821844 0.21396503 -4.04821844 0.21396503 0 0 Z " fill="#F2F2F2" transform="translate(1246.84765625,532.90234375)"/>
      <path d="M0 0 C2.97 0 5.94 0 9 0 C9.02505615 0.65597168 9.0501123 1.31194336 9.07592773 1.98779297 C9.1917326 4.95040183 9.31452886 7.91268031 9.4375 10.875 C9.47681641 11.90753906 9.51613281 12.94007813 9.55664062 14.00390625 C9.61948242 15.48310547 9.61948242 15.48310547 9.68359375 16.9921875 C9.72025146 17.90339355 9.75690918 18.81459961 9.79467773 19.75341797 C9.86577065 22.03483481 9.86577065 22.03483481 11 24 C13.35599235 24.46751788 13.35599235 24.46751788 16.0625 24.625 C16.98160156 24.69976563 17.90070312 24.77453125 18.84765625 24.8515625 C19.55792969 24.90054688 20.26820313 24.94953125 21 25 C21 27.64 21 30.28 21 33 C14.25226742 33.3294553 8.92708024 33.45746347 3 30 C-0.14518611 26.74118789 -0.35844964 24.37457578 -0.29296875 19.921875 C-0.2784668 18.18164062 -0.2784668 18.18164062 -0.26367188 16.40625 C-0.23853516 15.1996875 -0.21339844 13.993125 -0.1875 12.75 C-0.17396484 11.52796875 -0.16042969 10.3059375 -0.14648438 9.046875 C-0.1111398 6.03080502 -0.0617956 3.01562513 0 0 Z " fill="#F3F3F3" transform="translate(882,545)"/>
      <path d="M0 0 C2.97 0 5.94 0 9 0 C9.02505615 0.65597168 9.0501123 1.31194336 9.07592773 1.98779297 C9.1917326 4.95040183 9.31452886 7.91268031 9.4375 10.875 C9.47681641 11.90753906 9.51613281 12.94007813 9.55664062 14.00390625 C9.61948242 15.48310547 9.61948242 15.48310547 9.68359375 16.9921875 C9.72025146 17.90339355 9.75690918 18.81459961 9.79467773 19.75341797 C9.86577065 22.03483481 9.86577065 22.03483481 11 24 C13.35599235 24.46751788 13.35599235 24.46751788 16.0625 24.625 C16.98160156 24.69976563 17.90070312 24.77453125 18.84765625 24.8515625 C19.55792969 24.90054688 20.26820313 24.94953125 21 25 C21.04241723 27.33294775 21.04092937 29.66702567 21 32 C19.21927258 33.78072742 16.72356123 33.25615294 14.3125 33.3125 C9.05702515 33.26250737 5.90262591 32.79992523 2 29 C0.16575193 25.30982711 -0.23912036 22.35775408 -0.1953125 18.26171875 C-0.18886719 17.19501953 -0.18242188 16.12832031 -0.17578125 15.02929688 C-0.15902344 13.92650391 -0.14226563 12.82371094 -0.125 11.6875 C-0.11597656 10.56537109 -0.10695313 9.44324219 -0.09765625 8.28710938 C-0.07414486 5.52452091 -0.04128155 2.76237068 0 0 Z " fill="#F3F3F3" transform="translate(623,545)"/>
      <path d="M0 0 C0 14.52 0 29.04 0 44 C-2.64 44 -5.28 44 -8 44 C-8.04934656 38.19760386 -8.08569402 32.39532919 -8.10986328 26.59277344 C-8.11993627 24.61781691 -8.13359521 22.64287534 -8.15087891 20.66796875 C-8.17507039 17.83329582 -8.18646991 14.99881962 -8.1953125 12.1640625 C-8.20563507 11.27756012 -8.21595764 10.39105774 -8.22659302 9.47769165 C-8.2269907 7.31714048 -8.12272534 5.15706282 -8 3 C-5.48696401 0.48696401 -3.51117809 0 0 0 Z " fill="#FDFCFC" transform="translate(1063,533)"/>
      <path d="M0 0 C3.0874681 2.57289009 4.58386894 4.11083866 5.44140625 8.00390625 C5.65854308 11.69523237 5.10708037 13.83224076 3.125 16.9375 C0.39102013 19.5910687 -0.47384331 19.95036258 -4.3125 20.3125 C-8.57536111 19.95124058 -10.01992054 18.98007946 -13 16 C-14.72370774 12.55258453 -14.50306672 8.76964661 -14 5 C-10.3527069 0.13694254 -5.96443807 -1.17464077 0 0 Z " fill="#0C0F1C" transform="translate(1044,379)"/>
      <path d="M0 0 C2.57178207 2.07171334 4.43171962 4.05140757 6.25 6.8125 C6.25 8.1325 6.25 9.4525 6.25 10.8125 C5.40236084 10.842229 5.40236084 10.842229 4.53759766 10.87255859 C1.98292003 10.96768236 -0.57092541 11.07741058 -3.125 11.1875 C-4.01445313 11.2184375 -4.90390625 11.249375 -5.8203125 11.28125 C-6.67109375 11.31992187 -7.521875 11.35859375 -8.3984375 11.3984375 C-9.18395996 11.4298584 -9.96948242 11.4612793 -10.77880859 11.49365234 C-12.98002939 11.6524465 -12.98002939 11.6524465 -14.75 13.8125 C-15.84568427 19.0939711 -15.84568427 19.0939711 -14.9375 24.25 C-13.81705694 25.96293305 -13.81705694 25.96293305 -11.75 26.8125 C-11.75 27.4725 -11.75 28.1325 -11.75 28.8125 C-15.65368082 27.27891111 -17.6950049 25.48213411 -19.75 21.8125 C-20.69650015 15.23432396 -20.39168763 9.15362108 -16.94140625 3.37109375 C-12.67792771 -2.2063749 -6.12319623 -2.64410746 0 0 Z " fill="#121420" transform="translate(1282.75,541.1875)"/>
      <path d="M0 0 C2.97 0 5.94 0 9 0 C9 3.96 9 7.92 9 12 C12.96 12 16.92 12 21 12 C21 14.31 21 16.62 21 19 C12.09 19 3.18 19 -6 19 C-6 17.02 -6 15.04 -6 13 C-4.02 13 -2.04 13 0 13 C0 8.71 0 4.42 0 0 Z " fill="#ECECED" transform="translate(623,521)"/>
      <path d="M0 0 C3.78389682 1.93433422 6.6433356 4.9300068 8 9 C8 9.99 8 10.98 8 12 C1.4 12.33 -5.2 12.66 -12 13 C-13.28320459 17.49121605 -14.33455559 21.45279655 -15 26 C-18.07635267 22.92364733 -18.2216288 19.99481459 -18.375 15.8125 C-18.33704951 10.08956601 -16.79819778 6.26896033 -13 2 C-8.75091594 -0.83272271 -4.98854595 -0.76806539 0 0 Z " fill="#151924" transform="translate(804,540)"/>
      <path d="M0 0 C6 1 6 1 7.85668945 2.14770508 C9.59778085 4.96847391 9.3360274 7.3499088 9.29296875 10.63671875 C9.28330078 11.93544922 9.27363281 13.23417969 9.26367188 14.57226562 C9.23860585 15.94401639 9.21321101 17.31576118 9.1875 18.6875 C9.1724502 20.07094924 9.1587623 21.45441401 9.14648438 22.83789062 C9.11107223 26.22565207 9.06168054 29.61263139 9 33 C6.03 33 3.06 33 0 33 C0 22.11 0 11.22 0 0 Z " fill="#EAEAEB" transform="translate(476,545)"/>
      <path d="M0 0 C2.97 0 5.94 0 9 0 C9 3.96 9 7.92 9 12 C12.3 12 15.6 12 19 12 C19 14.31 19 16.62 19 19 C10.75 19 2.5 19 -6 19 C-6 16.69 -6 14.38 -6 12 C-4.02 12 -2.04 12 0 12 C0 8.04 0 4.08 0 0 Z " fill="#EAEAEB" transform="translate(882,521)"/>
      <path d="M0 0 C2.88300977 1.32383102 3.84625129 2.46934526 6 5 C6.66 7.31 7.32 9.62 8 12 C1.4 12 -5.2 12 -12 12 C-12.66 14.31 -13.32 16.62 -14 19 C-14.66 19 -15.32 19 -16 19 C-16.66 19.99 -17.32 20.98 -18 22 C-18.44444849 14.48141298 -18.68190531 9.11248749 -14 3 C-9.6867443 -0.88193013 -5.57327647 -0.92301897 0 0 Z " fill="#121622" transform="translate(551,540)"/>
      <path d="M0 0 C3.57815087 0.24963843 5.6436508 0.73925668 8.5625 2.875 C14.92360535 11.03026327 17.17903262 19.53188507 17.1875 29.625 C17.19974609 30.40101563 17.21199219 31.17703125 17.22460938 31.9765625 C17.22984167 33.98576362 17.12248735 35.99452914 17 38 C16.34 38.66 15.68 39.32 15 40 C13.50624504 36.3380651 12.01293976 32.67594716 10.52001953 29.01367188 C9.76748063 27.16787577 9.01460371 25.32221748 8.26171875 23.4765625 C7.2930328 21.10005298 6.32620433 18.72278541 5.36132812 16.34472656 C4.49805072 14.2236899 3.62778809 12.10547199 2.74804688 9.99121094 C2.38259766 9.1046582 2.01714844 8.21810547 1.640625 7.3046875 C1.32125977 6.53882324 1.00189453 5.77295898 0.67285156 4.98388672 C0 3 0 3 0 0 Z " fill="#F3F2F3" transform="translate(1208,533)"/>
      <path d="M0 0 C5 1 5 1 6.79418945 2.16137695 C8.59801404 4.91185336 8.33723783 7.15681302 8.29296875 10.41796875 C8.28330078 11.67158203 8.27363281 12.92519531 8.26367188 14.21679688 C8.23853516 15.52712891 8.21339844 16.83746094 8.1875 18.1875 C8.17244967 19.52277163 8.15876187 20.85805937 8.14648438 22.19335938 C8.11107694 25.46264576 8.0616889 28.73112093 8 32 C5.36 32 2.72 32 0 32 C0 21.44 0 10.88 0 0 Z " fill="#F6F6F6" transform="translate(427,545)"/>
      <path d="M0 0 C0.33 0 0.66 0 1 0 C1 37.62 1 75.24 1 114 C0.01 113.01 -0.98 112.02 -2 111 C-1.505 110.01 -1.505 110.01 -1 109 C-0.89632139 107.54320863 -0.85353219 106.08185824 -0.84178162 104.62142944 C-0.8319928 103.70153732 -0.82220398 102.7816452 -0.81211853 101.83387756 C-0.80636307 100.82183762 -0.8006076 99.80979767 -0.79467773 98.76708984 C-0.78477814 97.7036586 -0.77487854 96.64022736 -0.76467896 95.54457092 C-0.7329992 92.01671605 -0.70828093 88.48884768 -0.68359375 84.9609375 C-0.66302982 82.51998538 -0.6420335 80.07903686 -0.62062073 77.63809204 C-0.56534217 71.20356155 -0.51595842 64.76899862 -0.46777344 58.33441162 C-0.4176006 51.77239077 -0.36189255 45.21041721 -0.30664062 38.6484375 C-0.19898832 25.76566565 -0.09737125 12.88285345 0 0 Z " fill="#191A21" transform="translate(469,299)"/>
      <path d="M0 0 C18.48 0 36.96 0 56 0 C56 0.66 56 1.32 56 2 C38.84 2.33 21.68 2.66 4 3 C3.67 3.66 3.34 4.32 3 5 C2.67 4.01 2.34 3.02 2 2 C1.34 2 0.68 2 0 2 C0 1.34 0 0.68 0 0 Z " fill="#3BB14C" transform="translate(751,298)"/>
      <path d="M0 0 C2 2 2 2 2.375 4.9375 C2 8 2 8 0.3125 9.9375 C-2.63051139 11.28969442 -3.98528613 11.11068406 -7 10 C-9.14762184 6.77856724 -9.561068 5.7404533 -9 2 C-6.07557433 -1.24936186 -4.04996841 -1.38551551 0 0 Z " fill="#ECECED" transform="translate(1043,447)"/>
      <path d="M0 0 C0.70125 -0.01675781 1.4025 -0.03351562 2.125 -0.05078125 C2.74375 0.06910156 3.3625 0.18898438 4 0.3125 C6 3.3125 6 3.3125 5.75 5.875 C5 8.3125 5 8.3125 3 10.3125 C-0.13704316 10.646228 -2.16554166 10.84099028 -4.875 9.125 C-6.38332602 6.69491919 -6.36023622 5.12234248 -6 2.3125 C-3.67471713 -0.01278287 -3.15334102 0.01738975 0 0 Z " fill="#F1F1F1" transform="translate(962,567.6875)"/>
      <path d="M0 0 C2 2 2 2 2.3125 5.5 C2.1578125 7.2325 2.1578125 7.2325 2 9 C-1 11 -1 11 -4.0625 10.75 C-7 10 -7 10 -9 8 C-9.36023622 5.19015752 -9.38332602 3.61758081 -7.875 1.1875 C-5.16554166 -0.52849028 -3.13704316 -0.333728 0 0 Z " fill="#EAEAEB" transform="translate(658,567)"/>
      <path d="M0 0 C3 0.25 3 0.25 5 2.25 C5.25 5.75 5.25 5.75 5 9.25 C3 11.25 3 11.25 0 11.5 C-3 11.25 -3 11.25 -5 9.25 C-5.25 5.75 -5.25 5.75 -5 2.25 C-3 0.25 -3 0.25 0 0 Z " fill="#F7F7F7" transform="translate(1059,515.75)"/>
      <path d="M0 0 C3.5 0.25 3.5 0.25 5.5 2.25 C5.75 5.25 5.75 5.25 5.5 8.25 C3.5 10.25 3.5 10.25 0.5625 10.5625 C-2.5 10.25 -2.5 10.25 -4.375 9.0625 C-5.88332602 6.63241919 -5.86023622 5.05984248 -5.5 2.25 C-3.5 0.25 -3.5 0.25 0 0 Z " fill="#F6F6F6" transform="translate(1338.5,567.75)"/>
      <path d="M0 0 C0.66 0 1.32 0 2 0 C2 0.66 2 1.32 2 2 C2.99 2 3.98 2 5 2 C5.33 3.98 5.66 5.96 6 8 C5.34 8 4.68 8 4 8 C3.67 10.97 3.34 13.94 3 17 C2.67 17 2.34 17 2 17 C1.47226657 14.35536978 0.95252743 11.70960607 0.4375 9.0625 C0.21030273 7.93038086 0.21030273 7.93038086 -0.02148438 6.77539062 C-0.39117799 4.85814233 -0.70042238 2.9294475 -1 1 C-0.67 0.67 -0.34 0.34 0 0 Z " fill="#0E111E" transform="translate(1059,375)"/>
      <path d="M0 0 C0 4.97923672 -2.18251496 8.14263764 -5.5625 11.6875 C-6.366875 12.450625 -7.17125 13.21375 -8 14 C-8.99 15.485 -8.99 15.485 -10 17 C-10.99 16.34 -11.98 15.68 -13 15 C-12.48050781 14.41992188 -11.96101562 13.83984375 -11.42578125 13.2421875 C-7.53880749 8.8882021 -3.70229005 4.512166 0 0 Z M-12 17 C-11.34 17.33 -10.68 17.66 -10 18 C-11.98 18.99 -11.98 18.99 -14 20 C-13.34 19.01 -12.68 18.02 -12 17 Z " fill="#0B171A" transform="translate(901,367)"/>
      <path d="M0 0 C0.33 0 0.66 0 1 0 C1 1.65 1 3.3 1 5 C1.99 5 2.98 5 4 5 C3.95875 6.0725 3.9175 7.145 3.875 8.25 C3.98857072 11.65712165 4.10464685 13.26226767 6 16 C6.66 16.33 7.32 16.66 8 17 C8 17.66 8 18.32 8 19 C4.09631918 17.46641111 2.0549951 15.66963411 0 12 C-0.33562583 7.97773416 -0.23117269 4.02625777 0 0 Z " fill="#1C1C27" transform="translate(1263,551)"/>
      <path d="M0 0 C2.40108536 1.84083211 2.97681918 3.59326074 3.875 6.4375 C3.215 6.4375 2.555 6.4375 1.875 6.4375 C1.875 5.7775 1.875 5.1175 1.875 4.4375 C0.885 4.9325 0.885 4.9325 -0.125 5.4375 C-0.125 7.0875 -0.125 8.7375 -0.125 10.4375 C-2.52572955 7.55662454 -4.59791037 4.87345166 -6.125 1.4375 C-3.78854847 -0.06450455 -2.74651463 -0.72701858 0 0 Z " fill="#1A1B26" transform="translate(1059.125,370.5625)"/>
      <path d="M0 0 C0.99 0.33 1.98 0.66 3 1 C2.42655063 3.86724686 2.1385485 4.8614515 0 7 C-1.34294481 8.65893182 -2.67744688 10.32476605 -4 12 C-5.21621622 6.64864865 -5.21621622 6.64864865 -4.25 3.75 C-3 2 -3 2 0 0 Z " fill="#0E0F1C" transform="translate(1026,365)"/>
      <path d="M0 0 C0 0.99 0 1.98 0 3 C-0.90492188 3.27263672 -0.90492188 3.27263672 -1.828125 3.55078125 C-7.85585198 5.41987906 -7.85585198 5.41987906 -13 9 C-13 6 -13 6 -11.42578125 4.39453125 C-10.37970703 3.61142578 -10.37970703 3.61142578 -9.3125 2.8125 C-8.62800781 2.28269531 -7.94351563 1.75289062 -7.23828125 1.20703125 C-4.62535602 -0.20203314 -2.92557181 -0.2305617 0 0 Z " fill="#21242E" transform="translate(717,528)"/>
      <path d="M0 0 C0.99 0.33 1.98 0.66 3 1 C3.1875 3.875 3.1875 3.875 3 7 C2.01 7.66 1.02 8.32 0 9 C0 6.03 0 3.06 0 0 Z M0 9 C0 10.32 0 11.64 0 13 C-2.64 13.66 -5.28 14.32 -8 15 C-6.98565881 12.46414701 -6.34981128 11.21863205 -4 9.75 C-2 9 -2 9 0 9 Z " fill="#191C28" transform="translate(871,533)"/>
      <path d="M0 0 C0 3.94041228 -1.34743794 4.91568357 -3.875 7.875 C-6.66859927 11.1492185 -8.60782863 13.91141251 -10 18 C-11.32 17.34 -12.64 16.68 -14 16 C-13.40832031 15.34773438 -12.81664062 14.69546875 -12.20703125 14.0234375 C-8.04481368 9.41987549 -3.92330844 4.8092168 0 0 Z " fill="#43BF54" transform="translate(782,442)"/>
      <path d="M0 0 C2.25998595 3.59462331 2.20868087 6.56595675 2.125 10.75 C2.10695313 11.92046875 2.08890625 13.0909375 2.0703125 14.296875 C2.03550781 15.63492188 2.03550781 15.63492188 2 17 C-1.0689241 13.9310759 -1.063411 11.13325076 -1.125 6.9375 C-1 3 -1 3 0 0 Z " fill="#272931" transform="translate(1171,548)"/>
      <path d="M0 0 C0 0.66 0 1.32 0 2 C-1.15628906 2.03867187 -1.15628906 2.03867187 -2.3359375 2.078125 C-3.33882812 2.13484375 -4.34171875 2.1915625 -5.375 2.25 C-6.37273437 2.29640625 -7.37046875 2.3428125 -8.3984375 2.390625 C-11.12746299 2.71812004 -11.12746299 2.71812004 -12.2890625 4.921875 C-12.52367187 5.60765625 -12.75828125 6.2934375 -13 7 C-13.33 7.66 -13.66 8.32 -14 9 C-14.66 9 -15.32 9 -16 9 C-15.04872818 5.57542144 -14.07456145 4.06568509 -11.375 1.6875 C-7.13884627 -0.43057686 -4.67230248 -0.32222776 0 0 Z " fill="#202029" transform="translate(1140,540)"/>
      <path d="M0 0 C1.5631897 0.00785522 1.5631897 0.00785522 3.15795898 0.01586914 C4.28266602 0.0190918 5.40737305 0.02231445 6.56616211 0.02563477 C7.75016602 0.03401367 8.93416992 0.04239258 10.15405273 0.05102539 C11.34192383 0.05553711 12.52979492 0.06004883 13.75366211 0.06469727 C16.69967499 0.07652864 19.64558954 0.09301252 22.59155273 0.11352539 C22.59155273 0.44352539 22.59155273 0.77352539 22.59155273 1.11352539 C21.99616699 1.13334473 21.40078125 1.15316406 20.78735352 1.17358398 C18.09663121 1.26868665 15.40670125 1.37842381 12.71655273 1.48852539 C11.7794043 1.51946289 10.84225586 1.55040039 9.87670898 1.58227539 C8.53286133 1.6402832 8.53286133 1.6402832 7.16186523 1.69946289 C5.92073975 1.74659424 5.92073975 1.74659424 4.65454102 1.79467773 C2.37169188 1.93951676 2.37169188 1.93951676 0.59155273 4.11352539 C-0.72844727 3.12352539 -2.04844727 2.13352539 -3.40844727 1.11352539 C-2.40844727 0.11352539 -2.40844727 0.11352539 0 0 Z " fill="#121525" transform="translate(1165.408447265625,342.886474609375)"/>
      <path d="M0 0 C0 4.42425309 -1.31796353 6.26266327 -4.3125 9.5 C-6.78939174 11.80408534 -9.32253339 13.93452576 -12 16 C-10.37921571 12.27131047 -8.02767716 9.42653322 -5.4375 6.3125 C-4.63183594 5.33925781 -3.82617188 4.36601562 -2.99609375 3.36328125 C-1 1 -1 1 0 0 Z " fill="#44C956" transform="translate(884,320)"/>
      <path d="M0 0 C0.33 0 0.66 0 1 0 C1 1.98 1 3.96 1 6 C1.99 6 2.98 6 4 6 C3.34 8.97 2.68 11.94 2 15 C1.67 14.34 1.34 13.68 1 13 C0.34 13 -0.32 13 -1 13 C-0.67 8.71 -0.34 4.42 0 0 Z " fill="#111421" transform="translate(1227,557)"/>
      <path d="M0 0 C0.53625 0.37125 1.0725 0.7425 1.625 1.125 C0.44921875 2.64453125 0.44921875 2.64453125 -1.375 4.125 C-3.85546875 4.19921875 -3.85546875 4.19921875 -6.5625 3.8125 C-7.46355469 3.69261719 -8.36460938 3.57273437 -9.29296875 3.44921875 C-9.98003906 3.34222656 -10.66710938 3.23523438 -11.375 3.125 C-4.30720339 -1.58686441 -4.30720339 -1.58686441 0 0 Z " fill="#080B17" transform="translate(1047.375,363.875)"/>
      <path d="M0 0 C0.33 0.66 0.66 1.32 1 2 C3.02463255 2.65213292 3.02463255 2.65213292 5 3 C5 3.66 5 4.32 5 5 C6.65 4.67 8.3 4.34 10 4 C9.67 4.66 9.34 5.32 9 6 C6.35139573 6.59355614 3.70802678 6.74209269 1 7 C-2 3.25 -2 3.25 -2 1 C-1.34 0.67 -0.68 0.34 0 0 Z " fill="#3EBE4E" transform="translate(905,474)"/>
      <path d="M0 0 C3.3 0 6.6 0 10 0 C9.67 0.66 9.34 1.32 9 2 C9.66 2.66 10.32 3.32 11 4 C8.03 4 5.06 4 2 4 C2 3.01 2 2.02 2 1 C1.34 0.67 0.68 0.34 0 0 Z " fill="#0E1220" transform="translate(880,541)"/>
      <path d="M0 0 C0 3 0 3 -2 6 C-2.66 6 -3.32 6 -4 6 C-4.66 7.32 -5.32 8.64 -6 10 C-6.66 10 -7.32 10 -8 10 C-7.11681227 4.87751114 -4.0511001 2.93355524 0 0 Z " fill="#0D1320" transform="translate(814,473)"/>
      <path d="M0 0 C1.33333333 0 2.66666667 0 4 0 C4.06058594 0.61488281 4.12117187 1.22976563 4.18359375 1.86328125 C4.26738281 2.67152344 4.35117187 3.47976563 4.4375 4.3125 C4.51871094 5.11300781 4.59992187 5.91351562 4.68359375 6.73828125 C4.95265693 9.16087179 4.95265693 9.16087179 6 12 C5.01 12 4.02 12 3 12 C2 8 1 4 0 0 Z " fill="#101522" transform="translate(568,551)"/>
      <path d="M0 0 C0.99 0 1.98 0 3 0 C2.34 2.31 1.68 4.62 1 7 C0.34 7 -0.32 7 -1 7 C-1 9.64 -1 12.28 -1 15 C-1.33 15 -1.66 15 -2 15 C-2.3690205 4.44191344 -2.3690205 4.44191344 0 0 Z " fill="#0C1021" transform="translate(1017,378)"/>
      <path d="M0 0 C0 2 0 4 0 6 C1.32 6.66 2.64 7.32 4 8 C0.7 8 -2.6 8 -6 8 C-4.02 5.36 -2.04 2.72 0 0 Z " fill="#40BE4D" transform="translate(757,472)"/>
      <path d="M0 0 C0.66 0.33 1.32 0.66 2 1 C1.67 2.65 1.34 4.3 1 6 C-2 7 -2 7 -5 6 C-3.35 4.02 -1.7 2.04 0 0 Z " fill="#0E181D" transform="translate(825,457)"/>
      <path d="M0 0 C1.32 0.33 2.64 0.66 4 1 C4 1.66 4 2.32 4 3 C1.6875 4.6875 1.6875 4.6875 -1 6 C-1.99 5.67 -2.98 5.34 -4 5 C-2.68 3.35 -1.36 1.7 0 0 Z " fill="#0A141D" transform="translate(849,429)"/>
      <path d="M0 0 C1.53656962 2.4404341 2.02089707 3.70744102 1.8125 6.625 C1 9 1 9 -2 11 C-2.66 9.35 -3.32 7.7 -4 6 C-3.01 6 -2.02 6 -1 6 C-1.33 4.68 -1.66 3.36 -2 2 C-1.34 2 -0.68 2 0 2 C0 1.34 0 0.68 0 0 Z " fill="#171824" transform="translate(1019,393)"/>
      <path d="M0 0 C0.66 0.33 1.32 0.66 2 1 C2 1.99 2 2.98 2 4 C1.34 4 0.68 4 0 4 C-0.33 6.97 -0.66 9.94 -1 13 C-1.33 13 -1.66 13 -2 13 C-2.33 10.03 -2.66 7.06 -3 4 C-2.34 3.67 -1.68 3.34 -1 3 C-0.67 2.01 -0.34 1.02 0 0 Z " fill="#090B15" transform="translate(1063,379)"/>
      <path d="M0 0 C0.33 0 0.66 0 1 0 C1 1.98 1 3.96 1 6 C1.66 6 2.32 6 3 6 C3.33 5.34 3.66 4.68 4 4 C4 5.65 4 7.3 4 9 C3.34 9 2.68 9 2 9 C1.34 9.99 0.68 10.98 0 12 C0 8.04 0 4.08 0 0 Z " fill="#242730" transform="translate(533,550)"/>
      <path d="M0 0 C3.3125 -0.25 3.3125 -0.25 7 0 C8.9375 2 8.9375 2 10 4 C6.38970831 4 3.44193324 3.03907418 0 2 C0 1.34 0 0.68 0 0 Z " fill="#F2F2F1" transform="translate(366,299)"/>
      <path d="M0 0 C4.29 0 8.58 0 13 0 C13 0.33 13 0.66 13 1 C10.02148438 1.29296875 10.02148438 1.29296875 7.04296875 1.5859375 C4.70011858 1.92665391 4.70011858 1.92665391 2 4 C1.34 3.34 0.68 2.68 0 2 C0 1.34 0 0.68 0 0 Z " fill="#181C29" transform="translate(593,412)"/>
      <path d="M0 0 C0.66 0.99 1.32 1.98 2 3 C-0.97 5.475 -0.97 5.475 -4 8 C-4 4.09161134 -2.49432124 2.88405893 0 0 Z " fill="#3FBB50" transform="translate(765,462)"/>
      <path d="M0 0 C2.16874252 0.50603992 3.99967627 0.99983813 6 2 C5.67 3.32 5.34 4.64 5 6 C3.31237149 4.3545622 1.6459651 2.68711423 0 1 C0 0.67 0 0.34 0 0 Z " fill="#40B753" transform="translate(887,457)"/>
      <path d="M0 0 C0.99 0 1.98 0 3 0 C2.6875 1.875 2.6875 1.875 2 4 C1.01 4.66 0.02 5.32 -1 6 C-1 2 -1 2 0 0 Z " fill="#0D191D" transform="translate(915,278)"/>
      <path d="M0 0 C0.93065133 2.60582371 1.14917407 3.64198224 0.0625 6.25 C-0.4634375 7.11625 -0.4634375 7.11625 -1 8 C-2 7 -2 7 -2.0625 3.9375 C-2.041875 2.968125 -2.02125 1.99875 -2 1 C-1.34 0.67 -0.68 0.34 0 0 Z " fill="#0E1423" transform="translate(824,548)"/>
      <path d="M0 0 C0.99 0.33 1.98 0.66 3 1 C1.68 2.65 0.36 4.3 -1 6 C-1.99 5.67 -2.98 5.34 -4 5 C-2.68 3.35 -1.36 1.7 0 0 Z " fill="#1A1B25" transform="translate(1325,468)"/>
      <path d="M0 0 C0.66 0 1.32 0 2 0 C2 1.32 2 2.64 2 4 C-0.375 5.8125 -0.375 5.8125 -3 7 C-3.66 6.67 -4.32 6.34 -5 6 C-3.38405168 3.95880212 -1.7143618 1.95927063 0 0 Z " fill="#0D1D19" transform="translate(855,421)"/>
      <path d="M0 0 C1.80411967 2.75924185 2.0127245 3.88972103 1.625 7.25 C1.41875 8.1575 1.2125 9.065 1 10 C0.34 9.34 -0.32 8.68 -1 8 C-0.96712417 5.27130593 -0.43602229 2.7033382 0 0 Z " fill="#1C1F28" transform="translate(1076,392)"/>
      <path d="M0 0 C0.33 0 0.66 0 1 0 C1 1.65 1 3.3 1 5 C1.66 5 2.32 5 3 5 C3 6.65 3 8.3 3 10 C2.34 10 1.68 10 1 10 C-0.1577506 6.52674819 -0.06866652 3.63932552 0 0 Z " fill="#1F222E" transform="translate(1060,387)"/>
      <path d="M0 0 C2.4294516 3.6441774 2.16179575 5.71241272 2 10 C1.01 9.34 0.02 8.68 -1 8 C-0.67 5.36 -0.34 2.72 0 0 Z " fill="#1F222E" transform="translate(558,331)"/>
    </g>
  </g>
</svg>